<svg width="101" height="76" viewBox="0 0 101 76" fill="none" xmlns="http://www.w3.org/2000/svg">
<path d="M89.3889 0.5C95.5174 0.5 100.5 6.0957 100.5 13V63C100.5 69.8945 95.5174 75.5 89.3889 75.5H11.6111C5.47396 75.5 0.5 69.8945 0.5 63V13C0.5 6.0957 5.47396 0.5 11.6111 0.5H89.3889ZM47.7222 25.5C46.1944 25.5 44.9444 26.9062 44.9444 28.625C44.9444 30.3438 46.1944 31.75 47.7222 31.75H86.6111C88.1389 31.75 89.3889 30.3438 89.3889 28.625C89.3889 26.9062 88.1389 25.5 86.6111 25.5H47.7222ZM47.7222 50.5H86.6111C88.1389 50.5 89.3889 49.0938 89.3889 47.375C89.3889 45.6562 88.1389 44.25 86.6111 44.25H47.7222C46.1944 44.25 44.9444 45.6562 44.9444 47.375C44.9444 49.0938 46.1944 50.5 47.7222 50.5ZM28.9896 19.25C28.9896 17.082 27.4271 15.3242 25.3438 15.3242C23.5729 15.3242 22.0104 17.082 22.0104 19.25V20.4219C21.0382 20.6562 19.9618 20.9883 19.25 21.418C16.6562 22.7461 14.401 25.207 13.8524 28.7812C13.5451 30.7734 13.7083 32.707 14.4444 34.4453C15.1649 36.1641 16.2986 37.375 17.4497 38.2539C19.4583 39.7969 22.1146 40.6953 24.1458 41.3789L24.5278 41.4961C26.9583 42.3359 28.5903 42.9414 29.6146 43.7812C30.0486 44.1328 30.2049 44.4062 30.2569 44.582C30.3264 44.7383 30.4306 45.0898 30.309 45.8711C30.2049 46.5547 29.875 47.1406 28.9201 47.5898C27.8611 48.0977 26.1424 48.3516 23.9201 47.9609C22.8785 47.7656 21.0208 47.0625 19.3715 46.4375C18.9896 46.2812 18.6076 46.1445 18.2604 46.0078C16.4444 45.3242 14.4774 46.4375 13.8715 48.4883C13.2656 50.5391 14.25 52.7461 16.0694 53.2539C16.2795 53.5078 16.5399 53.6055 16.8385 53.7227C18.0521 54.25 20.3611 55.0703 22.0104 55.5V56.75C22.0104 58.918 23.5729 60.6758 25.3438 60.6758C27.4271 60.6758 28.9896 58.918 28.9896 56.75V55.6758C29.9097 55.4805 30.8125 55.0117 31.6458 54.7773C34.3889 53.4687 36.5764 50.9297 37.1493 47.2188C37.4618 45.1875 37.3229 43.2344 36.6285 41.457C35.9514 39.6992 34.8576 38.4102 33.6944 37.4727C31.5938 35.7344 28.7812 34.7969 26.6806 34.0742L26.3854 34.0352C24.0764 33.1953 22.4097 32.6094 21.3507 31.7891C20.8993 31.4375 20.7604 31.2031 20.7257 31.1055C20.691 31.0273 20.5868 30.793 20.691 30.1289C20.7604 29.7383 21.0208 29.0938 22.1146 28.5469C23.0868 27.9805 24.9618 27.668 27.0799 27.8633C27.8438 28.1758 30.1875 28.6836 30.8646 28.8789C32.7049 29.4453 34.6146 28.1953 35.1007 26.1055C35.6042 24.0352 34.4931 21.8867 32.6354 21.3398C31.8715 21.1055 30.1354 20.7148 28.9896 20.4805V19.25Z" fill="#217A6B"/>
</svg>
