<svg width="101" height="101" viewBox="0 0 101 101" fill="none" xmlns="http://www.w3.org/2000/svg">
<path d="M100.469 50.4023C100.469 53.918 97.8652 56.6719 94.9136 56.6719H89.3578L89.4794 87.9414C89.4967 94.875 84.5139 100.5 78.3678 100.5H22.7405C16.6031 100.5 11.6272 94.8945 11.6272 88V56.6719H6.06447C2.93413 56.6719 0.5 53.918 0.5 50.4023C0.5 48.6445 1.02155 47.082 2.23792 45.7148L46.7519 2.06562C47.9672 0.695703 49.3562 0.5 50.5715 0.5C51.7868 0.5 53.1758 0.891406 54.2349 1.86992L98.5596 45.7148C99.9486 47.082 100.66 48.6445 100.469 50.4023ZM57.4468 45.8125V34.875C57.4468 33.1562 56.1968 31.75 54.6689 31.75H46.3352C44.8074 31.75 43.5573 33.1562 43.5573 34.875V45.8125H33.8347C32.3069 45.8125 31.0568 47.2188 31.0568 48.9375V58.3125C31.0568 60.0312 32.3069 61.4375 33.8347 61.4375H43.5573V72.375C43.5573 74.0938 44.8074 75.5 46.3352 75.5H54.6689C56.1968 75.5 57.4468 74.0938 57.4468 72.375V61.4375H67.1694C68.6973 61.4375 69.9473 60.0312 69.9473 58.3125V48.9375C69.9473 47.2188 68.6973 45.8125 67.1694 45.8125H57.4468Z" fill="#217A6B"/>
</svg>
