<svg width="101" height="101" viewBox="0 0 101 101" fill="none" xmlns="http://www.w3.org/2000/svg">
<path d="M47.7222 0.5C52.3229 0.5 56.0556 4.69727 56.0556 9.875V72.3359C49.4236 76.5156 44.9444 84.4844 44.9444 93.6445C44.9444 96.1641 45.5694 98.5078 46.6632 100.5H8.83333C4.2309 100.5 0.5 96.3008 0.5 91.125V75.5H25.5C27.0278 75.5 28.2778 74.0938 28.2778 72.375C28.2778 70.6562 27.0278 69.25 25.5 69.25H0.5V56.75H25.5C27.0278 56.75 28.2778 55.3437 28.2778 53.625C28.2778 51.9062 27.0278 50.5 25.5 50.5H0.5V9.875C0.5 4.69727 4.2309 0.5 8.83333 0.5H47.7222ZM26.8889 13C25.3611 13 24.1111 14.3984 24.1111 16.125V20.8125H19.9444C18.4167 20.8125 17.1667 22.2188 17.1667 23.9375V27.0625C17.1667 28.7812 18.4167 30.1875 19.9444 30.1875H24.1111V34.875C24.1111 36.5938 25.3611 38 26.8889 38H29.6667C31.1944 38 32.4444 36.5938 32.4444 34.875V30.1875H36.6111C38.1389 30.1875 39.3889 28.7812 39.3889 27.0625V23.9375C39.3889 22.2188 38.1389 20.8125 36.6111 20.8125H32.4444V16.125C32.4444 14.3984 31.1944 13 29.6667 13H26.8889ZM89.3889 53.625C89.3889 62.2578 83.1736 69.25 75.5 69.25C67.8264 69.25 61.6111 62.2578 61.6111 53.625C61.6111 44.9922 67.8264 38 75.5 38C83.1736 38 89.3889 44.9922 89.3889 53.625ZM50.5 93.6836C50.5 83.6445 57.7396 75.5 66.6632 75.5H84.3368C93.2604 75.5 100.5 83.6445 100.5 93.6836C100.5 97.4531 97.7917 100.5 94.441 100.5H56.559C53.2083 100.5 50.5 97.4531 50.5 93.6836Z" fill="#217A6B"/>
</svg>
