<svg width="51" height="50" viewBox="0 0 51 50" fill="none" xmlns="http://www.w3.org/2000/svg">
<path d="M25.834 16.6615C24.1673 16.6615 22.7784 16.0795 21.6673 14.9156C20.5562 13.7517 20.0354 12.3372 20.1048 10.6719C20.1743 8.86632 20.8083 7.27743 22.0069 5.90521C23.2055 4.53299 24.4812 3.25729 25.834 2.07812C27.1882 3.25868 28.4645 4.53507 29.6632 5.90729C30.8618 7.27951 31.4951 8.86771 31.5632 10.6719C31.6326 12.3385 31.1118 13.7538 30.0007 14.9177C28.8895 16.0816 27.5007 16.6628 25.834 16.6615ZM43.0215 35.4115C43.4729 35.4115 43.8458 35.2635 44.1402 34.9677C44.4347 34.6719 44.5826 34.299 44.584 33.849C44.584 33.3976 44.4361 33.0247 44.1402 32.7302C43.8444 32.4358 43.4715 32.2878 43.0215 32.2865C42.5701 32.2865 42.1972 32.4344 41.9027 32.7302C41.6083 33.026 41.4604 33.399 41.459 33.849C41.459 34.3003 41.6069 34.6733 41.9027 34.9677C42.1986 35.2622 42.5715 35.4101 43.0215 35.4115ZM38.334 45.8281H13.334C11.5979 45.8281 10.1222 45.2205 8.9069 44.0052C7.69162 42.7899 7.08398 41.3142 7.08398 39.5781V35.4115H19.584V22.9115C19.584 21.7656 19.9923 20.7844 20.809 19.9677C21.6257 19.151 22.6062 18.7434 23.7507 18.7448H27.9173C29.0632 18.7448 30.0444 19.1531 30.8611 19.9698C31.6777 20.7865 32.0854 21.767 32.084 22.9115V35.4115H37.5007C37.4312 35.1337 37.3791 34.8733 37.3444 34.6302C37.3097 34.3871 37.2923 34.1267 37.2923 33.849C37.2923 32.2517 37.8479 30.8976 38.959 29.7865C40.0701 28.6753 41.4243 28.1198 43.0215 28.1198C44.6187 28.1198 45.9729 28.6753 47.084 29.7865C48.1951 30.8976 48.7507 32.2517 48.7507 33.849C48.7507 35.1684 48.3604 36.3316 47.5798 37.3385C46.7993 38.3455 45.8007 39.0226 44.584 39.3698V39.5781C44.584 41.3142 43.9763 42.7899 42.7611 44.0052C41.5458 45.2205 40.0701 45.8281 38.334 45.8281Z" fill="#217A6B"/>
</svg>
