<svg width="42" height="44" viewBox="0 0 42 44" fill="none" xmlns="http://www.w3.org/2000/svg">
<path d="M6.33398 39.6615H31.334C31.9243 39.6615 32.4194 39.4615 32.8194 39.0615C33.2194 38.6615 33.4187 38.167 33.4173 37.5781H4.25065C4.25065 38.1684 4.45065 38.6635 4.85065 39.0635C5.25065 39.4635 5.7451 39.6628 6.33398 39.6615ZM18.834 14.6615C17.1673 14.6615 15.7784 14.0795 14.6673 12.9156C13.5562 11.7517 13.0354 10.3372 13.1048 8.67188C13.1743 6.86632 13.8083 5.27743 15.0069 3.90521C16.2055 2.53299 17.4812 1.25729 18.834 0.078125C20.1882 1.25868 21.4645 2.53507 22.6632 3.90729C23.8618 5.27951 24.4951 6.86771 24.5632 8.67188C24.6326 10.3385 24.1118 11.7538 23.0007 12.9177C21.8895 14.0816 20.5007 14.6628 18.834 14.6615ZM16.7507 33.4115H20.9173V20.9115H16.7507V33.4115ZM18.834 10.4948C19.2854 10.4948 19.6583 10.3385 19.9527 10.026C20.2472 9.71354 20.3951 9.3316 20.3965 8.88021C20.3965 8.28993 20.2312 7.75174 19.9007 7.26562C19.5701 6.77951 19.2145 6.31076 18.834 5.85938C18.452 6.31076 18.0958 6.77951 17.7652 7.26562C17.4347 7.75174 17.2701 8.28993 17.2715 8.88021C17.2715 9.3316 17.4194 9.71354 17.7152 10.026C18.0111 10.3385 18.384 10.4948 18.834 10.4948ZM36.0215 33.4115C36.4729 33.4115 36.8458 33.2635 37.1402 32.9677C37.4347 32.6719 37.5826 32.299 37.584 31.849C37.584 31.3976 37.4361 31.0247 37.1402 30.7302C36.8444 30.4358 36.4715 30.2878 36.0215 30.2865C35.5701 30.2865 35.1972 30.4344 34.9027 30.7302C34.6083 31.026 34.4604 31.399 34.459 31.849C34.459 32.3003 34.6069 32.6733 34.9027 32.9677C35.1986 33.2622 35.5715 33.4101 36.0215 33.4115ZM31.334 43.8281H6.33398C4.59787 43.8281 3.12218 43.2205 1.9069 42.0052C0.691623 40.7899 0.0839844 39.3142 0.0839844 37.5781V33.4115H12.584V20.9115C12.584 19.7656 12.9923 18.7844 13.809 17.9677C14.6257 17.151 15.6062 16.7434 16.7507 16.7448H20.9173C22.0632 16.7448 23.0444 17.1531 23.8611 17.9698C24.6777 18.7865 25.0854 19.767 25.084 20.9115V33.4115H30.5007C30.4312 33.1337 30.3791 32.8733 30.3444 32.6302C30.3097 32.3871 30.2923 32.1267 30.2923 31.849C30.2923 30.2517 30.8479 28.8976 31.959 27.7865C33.0701 26.6753 34.4243 26.1198 36.0215 26.1198C37.6187 26.1198 38.9729 26.6753 40.084 27.7865C41.1951 28.8976 41.7507 30.2517 41.7507 31.849C41.7507 33.1684 41.3604 34.3316 40.5798 35.3385C39.7993 36.3455 38.8007 37.0226 37.584 37.3698V37.5781C37.584 39.3142 36.9763 40.7899 35.7611 42.0052C34.5458 43.2205 33.0701 43.8281 31.334 43.8281Z" fill="#217A6B"/>
</svg>
