<svg width="32" height="32" viewBox="0 0 32 32" fill="none" xmlns="http://www.w3.org/2000/svg">
<circle cx="16" cy="16" r="16" fill="#DDC9A3"/>
<path d="M16.0585 16.1757C18.8108 16.1757 20.9775 13.9505 20.9775 11.2568C20.9775 8.56306 18.7522 6.33784 16.0585 6.33784C13.3063 6.33784 11.1396 8.56306 11.1396 11.2568C11.1396 13.9505 13.3063 16.1757 16.0585 16.1757ZM16.0585 7.15766C18.2838 7.15766 20.0991 8.97297 20.0991 11.1982C20.0991 13.4234 18.2838 15.2387 16.0585 15.2387C13.8333 15.2387 12.018 13.4234 12.018 11.1982C11.9594 8.97297 13.7748 7.15766 16.0585 7.15766Z" fill="#235B4E"/>
<path d="M16 3C8.85586 3 3 8.85586 3 16C3 23.1441 8.85586 29 16 29C23.1441 29 29 23.1441 29 16C29 8.85586 23.2027 3 16 3ZM16 3.87838C22.7342 3.87838 28.1802 9.32433 28.1802 16C28.1802 18.8108 27.1847 21.4459 25.545 23.4955C24.0225 19.7477 20.3333 17.1126 16 17.1126C11.6667 17.1126 8.03604 19.8063 6.51351 23.5541C4.87387 21.5045 3.87838 18.8694 3.87838 16.0586C3.87838 9.32432 9.32433 3.87838 16 3.87838ZM16 28.1802C12.4865 28.1802 9.32432 26.6577 7.0991 24.3153C8.38739 20.6847 11.9009 18.0496 16 18.0496C20.0991 18.0496 23.5541 20.6847 24.9009 24.3153C22.6757 26.6577 19.5135 28.1802 16 28.1802Z" fill="#235B4E"/>
</svg>
