<svg width="22" height="19" viewBox="0 0 22 19" fill="none" xmlns="http://www.w3.org/2000/svg">
<path d="M0.131836 1.52148C0.131836 0.693203 0.803555 0.0214844 1.63184 0.0214844H19.6318C20.4615 0.0214844 21.1318 0.693203 21.1318 1.52148C21.1318 2.35117 20.4615 3.02148 19.6318 3.02148H1.63184C0.803555 3.02148 0.131836 2.35117 0.131836 1.52148ZM0.131836 9.02148C0.131836 8.1918 0.803555 7.52148 1.63184 7.52148H19.6318C20.4615 7.52148 21.1318 8.1918 21.1318 9.02148C21.1318 9.85117 20.4615 10.5215 19.6318 10.5215H1.63184C0.803555 10.5215 0.131836 9.85117 0.131836 9.02148ZM19.6318 18.0215H1.63184C0.803555 18.0215 0.131836 17.3512 0.131836 16.5215C0.131836 15.6918 0.803555 15.0215 1.63184 15.0215H19.6318C20.4615 15.0215 21.1318 15.6918 21.1318 16.5215C21.1318 17.3512 20.4615 18.0215 19.6318 18.0215Z" fill="#9D2449"/>
</svg>
