<svg width="20" height="16" viewBox="0 0 20 16" fill="none" xmlns="http://www.w3.org/2000/svg">
<path d="M13.9792 2.59738L17.1111 5.41668C17.2431 5.53546 17.2431 5.72924 17.1111 5.84802L9.52778 12.6743L6.30556 12.9963C5.875 13.04 5.51042 12.7119 5.55903 12.3243L5.91667 9.42372L13.5 2.59738C13.6319 2.47861 13.8472 2.47861 13.9792 2.59738ZM19.6042 1.88162L17.9097 0.35632C17.3819 -0.118773 16.5243 -0.118773 15.9931 0.35632L14.7639 1.46279C14.6319 1.58156 14.6319 1.77535 14.7639 1.89412L17.8958 4.71342C18.0278 4.83219 18.2431 4.83219 18.375 4.71342L19.6042 3.60695C20.1319 3.12874 20.1319 2.35671 19.6042 1.88162ZM13.3333 10.8177V13.9996H2.22222V3.99766H10.2014C10.3125 3.99766 10.4167 3.95702 10.4965 3.88826L11.8854 2.63802C12.1493 2.40047 11.9618 1.99727 11.5903 1.99727H1.66667C0.746528 1.99727 0 2.66927 0 3.49756V14.4997C0 15.328 0.746528 16 1.66667 16H13.8889C14.809 16 15.5556 15.328 15.5556 14.4997V9.56749C15.5556 9.23305 15.1076 9.0674 14.8438 9.30182L13.4549 10.5521C13.3785 10.624 13.3333 10.7177 13.3333 10.8177Z" fill="#9D2449"/>
</svg>
