<svg width="18" height="20" viewBox="0 0 18 20" fill="none" xmlns="http://www.w3.org/2000/svg">
<path d="M17.5179 6.35915H0.482143C0.216964 6.35915 0 6.15441 0 5.90418V4.53929C0 3.53458 0.863839 2.71944 1.92857 2.71944H3.85714V0.747932C3.85714 0.497702 4.07411 0.292969 4.33929 0.292969H5.94643C6.21161 0.292969 6.42857 0.497702 6.42857 0.747932V2.71944H11.5714V0.747932C11.5714 0.497702 11.7884 0.292969 12.0536 0.292969H13.6607C13.9259 0.292969 14.1429 0.497702 14.1429 0.747932V2.71944H16.0714C17.1362 2.71944 18 3.53458 18 4.53929V5.90418C18 6.15441 17.783 6.35915 17.5179 6.35915ZM0.482143 7.57238H17.5179C17.783 7.57238 18 7.77711 18 8.02734V17.8849C18 18.8896 17.1362 19.7047 16.0714 19.7047H1.92857C0.863839 19.7047 0 18.8896 0 17.8849V8.02734C0 7.77711 0.216964 7.57238 0.482143 7.57238ZM12.6964 14.8518C12.9616 14.8518 13.1786 14.6471 13.1786 14.3968V12.8803C13.1786 12.6301 12.9616 12.4253 12.6964 12.4253H5.30357C5.03839 12.4253 4.82143 12.6301 4.82143 12.8803V14.3968C4.82143 14.6471 5.03839 14.8518 5.30357 14.8518H12.6964Z" fill="#9D2449"/>
</svg>
