<svg width="39" height="41" viewBox="0 0 39 41" fill="none" xmlns="http://www.w3.org/2000/svg">
<path d="M38.9352 30.3049C38.823 30.4369 38.7225 30.557 38.6168 30.6745C35.8532 33.7446 33.0913 36.816 30.3311 39.8888C30.1752 40.0637 30.0911 40.1092 29.913 39.9106C27.0963 36.7705 24.2757 33.6333 21.4512 30.4989C21.4009 30.4435 21.3598 30.3788 21.3096 30.3122C21.4205 30.2099 21.5451 30.2548 21.6554 30.2541C22.7097 30.2488 23.764 30.2422 24.8176 30.2541C25.0694 30.2541 25.1438 30.1954 25.1438 29.9301C25.1347 26.6968 25.1386 23.4674 25.1392 20.236C25.1392 19.4442 25.4987 19.076 26.2927 19.0707C27.1833 19.0654 28.0738 19.0707 28.9637 19.0707C30.6043 19.0707 32.2453 19.0707 33.8868 19.0707C34.0386 19.0677 34.1903 19.0821 34.3389 19.1136C34.8282 19.2317 35.0925 19.5755 35.0925 20.0829C35.0925 23.3585 35.0977 26.6334 35.0866 29.909C35.0866 30.1895 35.1518 30.2561 35.4258 30.2521C36.4697 30.2356 37.5136 30.2449 38.5574 30.2488C38.6657 30.2528 38.7871 30.2191 38.9352 30.3049Z" fill="#217A6B"/>
<path d="M18.7006 0.0256595H27.9296C31.1375 0.0256595 33.5547 2.46717 33.556 5.71371C33.556 9.48484 33.5521 13.256 33.5638 17.0271C33.5638 17.3274 33.4842 17.3933 33.2037 17.3795C32.6942 17.3544 32.182 17.3551 31.6718 17.3795C31.4004 17.392 31.3332 17.3135 31.3339 17.041C31.3435 13.2472 31.3452 9.45405 31.3391 5.66158C31.3391 4.1683 30.4858 2.94095 29.1281 2.45199C28.7688 2.32502 28.3904 2.26206 28.0099 2.26591C21.8137 2.26591 15.6177 2.26591 9.42197 2.26591C7.81443 2.26591 6.50634 3.32169 6.15991 4.90207C6.12142 5.07826 6.07511 5.16602 5.87351 5.16602C5.28634 5.15282 4.69917 5.15678 4.112 5.16602C3.92606 5.16602 3.87647 5.12313 3.90322 4.92187C4.27314 2.09698 6.58464 0.0316002 9.40306 0.027641C12.5038 0.022802 15.6029 0.0221402 18.7006 0.0256595Z" fill="#484848"/>
<path d="M25.0524 37.0371H24.46C19.4603 37.0371 14.4606 37.0371 9.46099 37.0371C6.3294 37.0371 3.88286 34.6015 3.87046 31.4434C3.85676 28.1124 3.87046 24.7821 3.86133 21.4511C3.86133 21.2135 3.90373 21.1284 4.15948 21.1396C4.70163 21.1627 5.2464 21.1614 5.79051 21.1396C6.04169 21.1297 6.09063 21.2056 6.08997 21.4504C6.08149 24.7154 6.1239 27.9831 6.06975 31.2448C6.03647 33.2765 7.60944 34.8299 9.59278 34.8081C13.9718 34.7632 18.3527 34.7962 22.7324 34.789C22.8328 34.7836 22.933 34.8027 23.0246 34.8446C23.1162 34.8865 23.1966 34.95 23.2589 35.0298C23.8271 35.6897 24.4176 36.3317 25.0524 37.0371Z" fill="#484848"/>
<path d="M22.2736 7.93553C22.2736 6.92594 21.7191 6.37957 20.715 6.37891H11.3255C8.18395 6.37891 5.04301 6.37891 1.90274 6.37891C0.851051 6.37891 0.317383 6.91669 0.317383 7.97775C0.317383 11.4293 0.317383 14.8808 0.317383 18.3323C0.317383 19.4409 0.845831 19.9681 1.93471 19.9681C8.20047 19.9681 14.466 19.9681 20.7313 19.9681C21.7041 19.9681 22.2736 19.4079 22.2743 18.4227C22.2773 14.925 22.2771 11.4293 22.2736 7.93553ZM4.68332 17.3056H1.32145V9.04014H4.59916V10.4384H2.21525V12.2708H4.43345V13.6638H2.21525V15.9139H4.68462L4.68332 17.3056ZM8.02367 17.3056L7.04505 14.4471L6.06448 17.3063H4.99387L6.50485 12.9927L5.13479 9.04014H6.17865L7.06527 11.6961L7.93364 9.04014H8.96771L7.59308 13.0547L9.10341 17.3063L8.02367 17.3056ZM12.5906 16.7896C12.2817 17.2295 11.8903 17.4494 11.4162 17.4494C10.829 17.4494 10.3467 17.0744 9.96916 16.3244C9.59163 15.5743 9.40265 14.5491 9.40222 13.2487C9.40222 11.8732 9.59207 10.8046 9.97177 10.0431C10.3515 9.28165 10.8517 8.90091 11.4723 8.90091C12.0134 8.90091 12.4527 9.19982 12.7902 9.79766C12.9911 10.1496 13.1418 10.657 13.2423 11.32L12.3589 11.7159C12.3068 11.2874 12.198 10.9491 12.0327 10.701C11.8675 10.4529 11.6661 10.3288 11.4286 10.3288C11.1011 10.3288 10.8353 10.5488 10.6314 10.9887C10.4274 11.4286 10.3252 12.1411 10.3247 13.126C10.3247 14.1712 10.4254 14.9156 10.6268 15.359C10.8282 15.8024 11.0891 16.0241 11.4097 16.0241C11.6472 16.0241 11.8512 15.8831 12.0217 15.6012C12.1922 15.3192 12.3148 14.8755 12.3896 14.2702L13.2547 14.7836C13.1203 15.6836 12.8983 16.3525 12.5886 16.7902L12.5906 16.7896ZM17.3799 17.3056H14.0174V9.04014H17.2944V10.4384H14.9099V12.2708H17.1281V13.6638H14.9099V15.9139H17.3792L17.3799 17.3056ZM21.2715 17.3056H18.1602V9.1081H19.0527V15.9139H21.2709L21.2715 17.3056Z" fill="#217A6B"/>
</svg>
