<svg width="24" height="19" viewBox="0 0 24 19" fill="none" xmlns="http://www.w3.org/2000/svg">
<path d="M11.2969 5.18041C11.4087 5.16836 11.5205 5.16434 11.6323 5.16434C13.7487 5.16434 15.4658 6.85586 15.4658 9.02148C15.4658 11.1509 13.7487 12.8786 11.6323 12.8786C9.47999 12.8786 7.79884 11.1509 7.79884 9.02148C7.79884 8.90898 7.80283 8.79648 7.81481 8.68398C8.18618 8.86479 8.61745 9.02148 9.07667 9.02148C10.4863 9.02148 11.6323 7.86836 11.6323 6.45006C11.6323 5.988 11.4766 5.55407 11.2969 5.18041ZM19.3233 3.25988C21.1921 5.00363 22.442 7.05675 23.033 8.52729C23.1648 8.8447 23.1648 9.19827 23.033 9.51568C22.442 10.9501 21.1921 13.0032 19.3233 14.7831C17.4425 16.5429 14.8589 18.0215 11.6323 18.0215C8.40581 18.0215 5.82219 16.5429 3.94218 14.7831C2.07335 13.0032 0.824267 10.9501 0.230114 9.51568C0.0990765 9.19827 0.0990765 8.8447 0.230114 8.52729C0.824267 7.05675 2.07335 5.00363 3.94218 3.25988C5.82219 1.50166 8.40581 0.0214844 11.6323 0.0214844C14.8589 0.0214844 17.4425 1.50166 19.3233 3.25988ZM11.6323 3.23577C8.45772 3.23577 5.88209 5.82729 5.88209 9.02148C5.88209 12.2157 8.45772 14.8072 11.6323 14.8072C14.807 14.8072 17.3826 12.2157 17.3826 9.02148C17.3826 5.82729 14.807 3.23577 11.6323 3.23577Z" fill="#9D2449"/>
</svg>
