<svg width="38" height="38" viewBox="0 0 38 38" fill="none" xmlns="http://www.w3.org/2000/svg">
    <rect width="38" height="38" fill="#DDDDDD"/>
    <path d="M20.1161 9H13.5C12.1193 9 11 10.1193 11 11.5V26.5C11 27.8807 12.1193 29 13.5 29H23.5C24.8807 29 26 27.8807 26 26.5V14.8839C26 14.5524 25.8683 14.2344 25.6339 14L21 9.36612C20.7656 9.1317 20.4476 9 20.1161 9ZM20.375 13.375V10.875L24.125 14.625H21.625C20.9346 14.625 20.375 14.0654 20.375 13.375ZM16.4419 21.3169C16.1979 21.561 15.8021 21.561 15.5581 21.3169C15.314 21.0729 15.314 20.6771 15.5581 20.4331L18.0581 17.9331C18.3021 17.689 18.6979 17.689 18.9419 17.9331L21.4419 20.4331C21.686 20.6771 21.686 21.0729 21.4419 21.3169C21.1979 21.561 20.8021 21.561 20.5581 21.3169L19.125 19.8839V24.625C19.125 24.9702 18.8452 25.25 18.5 25.25C18.1548 25.25 17.875 24.9702 17.875 24.625V19.8839L16.4419 21.3169Z" fill="#9D2449"/>
</svg>
