<svg width="14" height="15" viewBox="0 0 14 15" fill="none" xmlns="http://www.w3.org/2000/svg">
<path d="M13.5 0.937505H9.75L9.45625 0.389653C9.39402 0.272529 9.29817 0.174006 9.17947 0.105169C9.06078 0.0363316 8.92395 -8.87099e-05 8.78438 5.13654e-06H5.2125C5.07324 -0.000496734 4.93665 0.0357877 4.81838 0.104701C4.7001 0.173615 4.60492 0.272371 4.54375 0.389653L4.25 0.937505H0.5C0.367392 0.937505 0.240215 0.986891 0.146447 1.0748C0.0526784 1.16271 0 1.28193 0 1.40625L0 2.34375C0 2.46807 0.0526784 2.5873 0.146447 2.67521C0.240215 2.76312 0.367392 2.8125 0.5 2.8125H13.5C13.6326 2.8125 13.7598 2.76312 13.8536 2.67521C13.9473 2.5873 14 2.46807 14 2.34375V1.40625C14 1.28193 13.9473 1.16271 13.8536 1.0748C13.7598 0.986891 13.6326 0.937505 13.5 0.937505ZM1.6625 13.6816C1.68635 14.0387 1.85443 14.3737 2.13252 14.6187C2.41061 14.8636 2.77781 15 3.15938 15H10.8406C11.2222 15 11.5894 14.8636 11.8675 14.6187C12.1456 14.3737 12.3137 14.0387 12.3375 13.6816L13 3.75H1L1.6625 13.6816Z" fill="#9D2449"/>
</svg>
