<svg width="19" height="15" viewBox="0 0 19 15" fill="none" xmlns="http://www.w3.org/2000/svg">
<path d="M5.7 1.40625C5.7 0.62959 6.33828 0 7.125 0H11.875C12.6617 0 13.3 0.62959 13.3 1.40625V15H10.925V12.6562C10.925 11.8799 10.2867 11.25 9.5 11.25C8.71328 11.25 8.075 11.8799 8.075 12.6562V15H5.7V1.40625ZM9.2625 1.875C9.00125 1.875 8.7875 2.08477 8.7875 2.34375V3.04688H8.075C7.81375 3.04688 7.6 3.25781 7.6 3.51562V3.98438C7.6 4.24219 7.81375 4.45312 8.075 4.45312H8.7875V5.15625C8.7875 5.41406 9.00125 5.625 9.2625 5.625H9.7375C9.99875 5.625 10.2125 5.41406 10.2125 5.15625V4.45312H10.925C11.1862 4.45312 11.4 4.24219 11.4 3.98438V3.51562C11.4 3.25781 11.1862 3.04688 10.925 3.04688H10.2125V2.34375C10.2125 2.08477 9.99875 1.875 9.7375 1.875H9.2625ZM4.75 2.8125V15H1.425C0.637984 15 0 14.3701 0 13.5938V9.375H2.375C2.63744 9.375 2.85 9.16406 2.85 8.90625C2.85 8.64844 2.63744 8.4375 2.375 8.4375H0V6.5625H2.375C2.63744 6.5625 2.85 6.35156 2.85 6.09375C2.85 5.83594 2.63744 5.625 2.375 5.625H0V4.21875C0 3.44238 0.637984 2.8125 1.425 2.8125H4.75ZM17.575 2.8125C18.3617 2.8125 19 3.44238 19 4.21875V5.625H16.625C16.3637 5.625 16.15 5.83594 16.15 6.09375C16.15 6.35156 16.3637 6.5625 16.625 6.5625H19V8.4375H16.625C16.3637 8.4375 16.15 8.64844 16.15 8.90625C16.15 9.16406 16.3637 9.375 16.625 9.375H19V13.5938C19 14.3701 18.3617 15 17.575 15H14.25V2.8125H17.575Z" fill="#9D2449"/>
</svg>
