<svg width="40" height="41" viewBox="0 0 40 41" fill="none" xmlns="http://www.w3.org/2000/svg">
<path d="M39.537 30.3066C39.4254 30.4386 39.3242 30.5587 39.2185 30.6762C36.4534 33.7468 33.6901 36.8187 30.9285 39.892C30.7719 40.0669 30.6883 40.1124 30.5101 39.9138C27.6916 36.7732 24.8693 33.6355 22.0433 30.5007C21.9931 30.4452 21.9526 30.3805 21.9023 30.3139C22.0127 30.2116 22.1373 30.2565 22.2483 30.2558C23.3025 30.2505 24.3573 30.2439 25.4122 30.2558C25.6635 30.2558 25.7385 30.1971 25.7385 29.9318C25.7294 26.6997 25.7281 23.4678 25.7346 20.2362C25.7346 19.4442 26.0943 19.076 26.8887 19.0707C27.7797 19.0654 28.67 19.0707 29.561 19.0707C31.2029 19.0707 32.8446 19.0707 34.486 19.0707C34.6381 19.0677 34.7901 19.0821 34.939 19.1136C35.4286 19.2317 35.693 19.5756 35.693 20.0831C35.693 23.3592 35.6975 26.6346 35.6864 29.9107C35.6864 30.1911 35.7517 30.2578 36.0259 30.2538C37.0702 30.2373 38.1146 30.2466 39.159 30.2505C39.2681 30.2545 39.3908 30.2208 39.537 30.3066Z" fill="#9D2449"/>
<path d="M11.8732 6.35695H21.2675C22.2728 6.35695 22.8263 6.90406 22.8276 7.91315C22.8311 11.4097 22.8311 14.9057 22.8276 18.4013C22.8276 19.3867 22.2571 19.947 21.2838 19.9463C15.0149 19.9463 8.74609 19.9463 2.47754 19.9463C1.3881 19.9463 0.860028 19.4183 0.859375 18.3103C0.859375 14.8586 0.859375 11.4068 0.859375 7.95473C0.859375 6.89285 1.39398 6.35629 2.44621 6.35563C5.58853 6.35519 8.73085 6.35563 11.8732 6.35695ZM9.15449 13.148C9.15449 14.4567 9.15841 15.7648 9.14992 17.0735C9.14992 17.2827 9.19953 17.3612 9.4195 17.356C10.2785 17.3348 11.1375 17.3441 11.9959 17.319C13.3014 17.2801 14.1695 16.6082 14.6415 15.3879C15.0984 14.2046 15.135 12.983 14.9228 11.7535C14.618 9.98941 13.6702 9.14267 11.9045 8.98824C11.0899 8.91696 10.2726 8.9757 9.45932 8.94204C9.2178 8.93148 9.14665 9.00804 9.14861 9.25618C9.16167 10.5537 9.15449 11.8525 9.15449 13.148ZM2.69229 13.3229C2.69229 14.565 2.69947 15.8063 2.68641 17.0484C2.68641 17.3012 2.75757 17.3685 2.99843 17.3566C3.39987 17.3375 3.80327 17.3375 4.2047 17.3566C4.4534 17.3692 4.54283 17.3065 4.53696 17.0352C4.51868 16.2116 4.53696 15.3853 4.52521 14.563C4.51998 14.299 4.60419 14.2251 4.85876 14.233C5.25075 14.2459 5.64315 14.2342 6.0337 14.198C7.33528 14.0733 8.05004 13.4113 8.22302 12.1713C8.28612 11.7363 8.27464 11.2936 8.18908 10.8625C8.01936 10.025 7.48933 9.16775 6.36138 9.03312C5.16882 8.89056 3.97298 8.97966 2.77845 8.9526C2.62767 8.94864 2.62962 9.04763 2.6368 9.15059C2.65182 9.35584 2.68837 9.56043 2.68903 9.76568C2.69164 10.949 2.68903 12.1356 2.68968 13.3229H2.69229ZM16.2694 13.1592C16.2694 14.4561 16.2766 15.7529 16.2636 17.053C16.2603 17.3071 16.3367 17.3711 16.5756 17.3599C16.9774 17.3395 17.38 17.3395 17.7818 17.3599C18.0351 17.3738 18.1174 17.3018 18.1134 17.0365C18.0978 16.1251 18.1134 15.2124 18.1043 14.3003C18.1043 14.0931 18.1539 14.0066 18.3765 14.0178C18.7342 14.0357 19.0945 14.0284 19.4522 14.0178C19.7982 14.0106 20.2688 14.1677 20.4575 13.9631C20.6892 13.7123 20.509 13.2331 20.5351 12.8543C20.5502 12.6326 20.4601 12.5785 20.2538 12.5824C19.6232 12.5943 18.9927 12.5824 18.3608 12.591C18.165 12.591 18.0952 12.5428 18.0997 12.3329C18.1141 11.7839 18.1154 11.2341 18.0997 10.683C18.0919 10.4303 18.1787 10.3728 18.4163 10.3761C19.2858 10.39 20.1552 10.3761 21.0273 10.3841C21.2127 10.3841 21.2747 10.328 21.2669 10.1419C21.2509 9.84554 21.2509 9.54855 21.2669 9.25222C21.2838 9.00606 21.2016 8.93544 20.9588 8.93808C19.4923 8.95084 18.0251 8.95084 16.5573 8.93808C16.3288 8.93808 16.2636 9.00012 16.2655 9.23045C16.2707 10.5438 16.2655 11.8525 16.2662 13.1592H16.2694Z" fill="#9D2449"/>
<path d="M19.2912 0.0178473H28.525C31.7352 0.0178473 34.1536 2.45972 34.1543 5.70676C34.1543 9.47846 34.1543 13.2502 34.1628 17.0219C34.1628 17.3222 34.0831 17.3882 33.8025 17.3743C33.2927 17.3492 32.7796 17.3499 32.2698 17.3743C31.9983 17.3868 31.931 17.3083 31.9317 17.0357C31.9413 13.2414 31.943 9.44766 31.9369 5.65462C31.9369 4.16112 31.0831 2.93358 29.7248 2.44454C29.3653 2.31756 28.9867 2.25459 28.6059 2.25843C22.407 2.25843 16.2077 2.25843 10.0079 2.25843C8.40015 2.25843 7.09139 3.31438 6.7474 4.895C6.70888 5.07121 6.66254 5.15898 6.46084 5.15898C5.87337 5.14579 5.28589 5.14974 4.69842 5.15898C4.51239 5.15898 4.46278 5.11609 4.48889 4.9148C4.85965 2.08948 7.17168 0.0237889 9.9922 0.0198291C13.0919 0.0149894 16.1916 0.0143275 19.2912 0.0178473Z" fill="#484848"/>
<path d="M25.6491 37.0317H25.0571C20.0527 37.0317 15.0505 37.0317 10.0504 37.0317C6.91725 37.0317 4.46881 34.5958 4.45641 31.4372C4.44335 28.1057 4.4564 24.7748 4.44727 21.4433C4.44727 21.2057 4.49034 21.1206 4.74557 21.1318C5.28865 21.1549 5.83369 21.1536 6.37743 21.1318C6.62809 21.1219 6.6777 21.1978 6.67705 21.4427C6.66856 24.7082 6.71033 27.9763 6.65681 31.2386C6.62352 33.2706 8.19729 34.8241 10.1777 34.8024C14.5596 34.7575 18.9421 34.7905 23.3247 34.7832C23.425 34.7779 23.5252 34.797 23.6168 34.8389C23.7083 34.8808 23.7886 34.9443 23.8508 35.0241C24.4239 35.6841 25.014 36.3262 25.6491 37.0317Z" fill="#484848"/>
<path d="M10.9944 13.1201C10.9944 12.307 11.0042 11.4939 10.9885 10.6815C10.9833 10.428 11.0629 10.3706 11.3031 10.3753C12.249 10.3957 12.7216 10.7277 12.9389 11.6523C13.1987 12.7096 13.1682 13.8186 12.8508 14.8597C12.5897 15.7084 12.0675 15.9256 11.1576 15.9157C10.9389 15.9124 10.9983 15.7434 10.997 15.6279C10.9944 14.7898 10.9944 13.9549 10.9944 13.1201Z" fill="#9D2449"/>
<path d="M4.5282 11.5384C4.5282 11.2084 4.53603 10.8784 4.52493 10.5484C4.51905 10.3716 4.56149 10.2844 4.75666 10.2983C4.95184 10.3122 5.14832 10.2983 5.34414 10.3082C5.86635 10.3326 6.1627 10.5854 6.27106 11.1002C6.33398 11.4021 6.33086 11.7143 6.26192 12.0149C6.14377 12.5428 5.92314 12.7157 5.31803 12.7857C4.5308 12.8768 4.5308 12.8768 4.5308 12.0914L4.5282 11.5384Z" fill="#9D2449"/>
</svg>
