<svg width="19" height="19" viewBox="0 0 19 19" fill="none" xmlns="http://www.w3.org/2000/svg">
<path d="M14.2917 0.875H2.79167C1.72792 0.875 0.875 1.7375 0.875 2.79167V16.2083C0.875 17.2625 1.72792 18.125 2.79167 18.125H16.2083C17.2625 18.125 18.125 17.2625 18.125 16.2083V4.70833L14.2917 0.875ZM16.2083 16.2083H2.79167V2.79167H13.4963L16.2083 5.50375V16.2083ZM9.5 9.5C7.90917 9.5 6.625 10.7842 6.625 12.375C6.625 13.9658 7.90917 15.25 9.5 15.25C11.0908 15.25 12.375 13.9658 12.375 12.375C12.375 10.7842 11.0908 9.5 9.5 9.5ZM3.75 3.75H12.375V7.58333H3.75V3.75Z" fill="#9D2449"/>
</svg>
