<svg width="21" height="15" viewBox="0 0 21 15" fill="none" xmlns="http://www.w3.org/2000/svg">
<path d="M20.7094 8.16354L13.709 14.7249C13.084 15.3108 12.0006 14.9007 12.0006 14.061V10.3116H6.33365C5.77945 10.3116 5.3336 9.89372 5.3336 9.37427V5.6249C5.3336 5.10545 5.77945 4.68755 6.33365 4.68755H12.0006V0.938175C12.0006 0.102376 13.0798 -0.311617 13.709 0.274223L20.7094 6.83563C21.0969 7.20276 21.0969 7.79641 20.7094 8.16354ZM8.0004 14.5297V12.9674C8.0004 12.7097 7.77539 12.4988 7.50037 12.4988H4.0002C3.26266 12.4988 2.6668 11.9403 2.6668 11.249V3.75021C2.6668 3.05892 3.26266 2.50042 4.0002 2.50042H7.50037C7.77539 2.50042 8.0004 2.28951 8.0004 2.03174V0.469503C8.0004 0.211733 7.77539 0.000830666 7.50037 0.000830666H4.0002C1.79176 0.000830666 0 1.68024 0 3.75021V11.249C0 13.3189 1.79176 14.9983 4.0002 14.9983H7.50037C7.77539 14.9983 8.0004 14.7874 8.0004 14.5297Z" fill="#F8F9FA"/>
</svg>
