<svg width="17" height="17" viewBox="0 0 17 17" fill="none" xmlns="http://www.w3.org/2000/svg">
<path d="M8.5 0C3.80508 0 0 3.80508 0 8.5C0 13.1949 3.80508 17 8.5 17C13.1949 17 17 13.1949 17 8.5C17 3.80508 13.1949 0 8.5 0ZM8.5 4.25C9.0867 4.25 9.5625 4.7258 9.5625 5.3125C9.5625 5.8992 9.0867 6.375 8.5 6.375C7.9133 6.375 7.4375 5.9002 7.4375 5.3125C7.4375 4.7248 7.9123 4.25 8.5 4.25ZM9.82812 12.75H7.17188C6.73359 12.75 6.375 12.3947 6.375 11.9531C6.375 11.5115 6.73193 11.1562 7.17188 11.1562H7.70312V9.03125H7.4375C6.99756 9.03125 6.64062 8.67432 6.64062 8.23438C6.64062 7.79443 6.99922 7.4375 7.4375 7.4375H8.5C8.93994 7.4375 9.29688 7.79443 9.29688 8.23438V11.1562H9.82812C10.2681 11.1562 10.625 11.5132 10.625 11.9531C10.625 12.3931 10.2697 12.75 9.82812 12.75Z" fill="black"/>
</svg>
