<svg width="29" height="25" viewBox="0 0 29 25" fill="none" xmlns="http://www.w3.org/2000/svg">
<path d="M8.05556 2.34375C8.05556 1.04932 9.13802 0 10.4722 0H12.8889V3.90625C12.8889 4.33789 13.2514 4.6875 13.6944 4.6875H15.3056C15.7486 4.6875 16.1111 4.33789 16.1111 3.90625V0H18.5278C19.862 0 20.9444 1.04932 20.9444 2.34375V8.59375C20.9444 9.8877 19.862 10.9375 18.5278 10.9375H10.4722C9.13802 10.9375 8.05556 9.8877 8.05556 8.59375V2.34375ZM4.83333 14.0625V17.9688C4.83333 18.3984 5.19583 18.75 5.63889 18.75H7.25C7.69306 18.75 8.05556 18.3984 8.05556 17.9688V14.0625H10.4722C11.8064 14.0625 12.8889 15.1123 12.8889 16.4062V22.6562C12.8889 23.9502 11.8064 25 10.4722 25H2.41667C1.08196 25 0 23.9502 0 22.6562V16.4062C0 15.1123 1.08196 14.0625 2.41667 14.0625H4.83333ZM20.9444 14.0625V17.9688C20.9444 18.3984 21.3069 18.75 21.75 18.75H23.3611C23.8042 18.75 24.1667 18.3984 24.1667 17.9688V14.0625H26.5833C27.9175 14.0625 29 15.1123 29 16.4062V22.6562C29 23.9502 27.9175 25 26.5833 25H18.5278C17.1936 25 16.1111 23.9502 16.1111 22.6562V16.4062C16.1111 15.1123 17.1936 14.0625 18.5278 14.0625H20.9444Z" fill="black"/>
</svg>
