<svg viewBox="0 0 21 20" xmlns="http://www.w3.org/2000/svg">
<path d="M9.91667 0.498047C10.8828 0.498047 11.6667 1.29553 11.6667 2.2793V14.1469C10.274 14.941 9.33333 16.4551 9.33333 18.1955C9.33333 18.6742 9.46458 19.1195 9.69427 19.498H1.75C0.78349 19.498 0 18.7002 0 17.7168V14.748H5.25C5.57083 14.748 5.83333 14.4809 5.83333 14.1543C5.83333 13.8277 5.57083 13.5605 5.25 13.5605H0V11.1855H5.25C5.57083 11.1855 5.83333 10.9184 5.83333 10.5918C5.83333 10.2652 5.57083 9.99805 5.25 9.99805H0V2.2793C0 1.29553 0.78349 0.498047 1.75 0.498047H9.91667ZM5.54167 2.87305C5.22083 2.87305 4.95833 3.13875 4.95833 3.4668V4.35742H4.08333C3.7625 4.35742 3.5 4.62461 3.5 4.95117V5.54492C3.5 5.87148 3.7625 6.13867 4.08333 6.13867H4.95833V7.0293C4.95833 7.35586 5.22083 7.62305 5.54167 7.62305H6.125C6.44583 7.62305 6.70833 7.35586 6.70833 7.0293V6.13867H7.58333C7.90417 6.13867 8.16667 5.87148 8.16667 5.54492V4.95117C8.16667 4.62461 7.90417 4.35742 7.58333 4.35742H6.70833V3.4668C6.70833 3.13875 6.44583 2.87305 6.125 2.87305H5.54167ZM18.6667 10.5918C18.6667 12.232 17.3615 13.5605 15.75 13.5605C14.1385 13.5605 12.8333 12.232 12.8333 10.5918C12.8333 8.95156 14.1385 7.62305 15.75 7.62305C17.3615 7.62305 18.6667 8.95156 18.6667 10.5918ZM10.5 18.2029C10.5 16.2955 12.0203 14.748 13.8943 14.748H17.6057C19.4797 14.748 21 16.2955 21 18.2029C21 18.9191 20.4312 19.498 19.7276 19.498H11.7724C11.0688 19.498 10.5 18.9191 10.5 18.2029Z"/>
</svg>
