<svg viewBox="0 0 24 15" xmlns="http://www.w3.org/2000/svg">
<path d="M24 9.64286V11.25C24 11.8426 23.4638 12.3214 22.8 12.3214H21.5513C21.2663 13.8415 19.785 15 18 15C16.215 15 14.7338 13.8415 14.4488 12.3214H9.55125C9.26625 13.8415 7.785 15 6 15C4.215 15 2.73525 13.8415 2.44988 12.3214H1.2C0.537375 12.3214 0 11.8426 0 11.25V7.5C0 6.59263 0.630375 5.8192 1.521 5.50446L3.0825 2.02065C3.62925 0.800223 4.95375 0 6.42375 0H13.245C14.34 0 15.3413 0.443973 16.0575 1.20636L19.8075 5.39062C22.17 5.62835 24 7.45982 24 9.61272V9.64286ZM6.42375 2.14286C5.9325 2.14286 5.49375 2.38058 5.31 2.81585L4.17375 5.35714H8.4V2.14286H6.42375ZM10.2 5.35714H16.7025L14.1825 2.54464C13.9575 2.29018 13.5788 2.14286 13.245 2.14286H10.2V5.35714ZM19.6987 12.3214C19.7625 12.1239 19.8 11.9732 19.8 11.7857C19.8 10.8984 18.9938 10.1786 18 10.1786C17.0063 10.1786 16.2 10.8984 16.2 11.7857C16.2 11.9732 16.2038 12.1239 16.3013 12.3214C16.5488 12.9442 17.2163 13.3929 18 13.3929C18.7838 13.3929 19.4513 12.9442 19.6987 12.3214ZM7.69875 12.3214C7.7625 12.1239 7.8 11.9732 7.8 11.7857C7.8 10.8984 6.99375 10.1786 6 10.1786C5.00625 10.1786 4.2 10.8984 4.2 11.7857C4.2 11.9732 4.20375 12.1239 4.30125 12.3214C4.54875 12.9442 5.21625 13.3929 6 13.3929C6.78375 13.3929 7.45125 12.9442 7.69875 12.3214Z"/>
</svg>
