<svg viewBox="0 0 15 20" xmlns="http://www.w3.org/2000/svg">
<path d="M10 -0.000488281V4.99951H15L10 -0.000488281ZM8.75 4.99951V-0.000488281H1.875C0.839453 -0.000488281 0 0.838965 0 1.87451V18.1245C0 19.1597 0.839453 19.9995 1.875 19.9995H13.125C14.1605 19.9995 15 19.1601 15 18.1245V6.24951H10.0352C9.30859 6.24951 8.75 5.69092 8.75 4.99951ZM10.625 16.2495H4.375C4.03125 16.2495 3.75 15.9683 3.75 15.6245C3.75 15.2808 4.03125 14.9995 4.375 14.9995H10.625C10.9702 14.9995 11.25 15.2793 11.25 15.6245C11.25 15.9683 10.9688 16.2495 10.625 16.2495ZM10.625 13.7495H4.375C4.03125 13.7495 3.75 13.4683 3.75 13.1245C3.75 12.7808 4.03125 12.4995 4.375 12.4995H10.625C10.9702 12.4995 11.25 12.7793 11.25 13.1245C11.25 13.4683 10.9688 13.7495 10.625 13.7495ZM11.25 10.6245C11.25 10.9683 10.9688 11.2495 10.625 11.2495H4.375C4.03125 11.2495 3.75 10.9683 3.75 10.6245C3.75 10.2808 4.03125 9.99951 4.375 9.99951H10.625C10.9688 9.99951 11.25 10.2808 11.25 10.6245Z"/>
</svg>
