<svg viewBox="0 0 16 22" xmlns="http://www.w3.org/2000/svg">
    <path d="M9.33333 6.10156V0.851562H2C0.895417 0.851562 0 1.73299 0 2.82031V19.8828C0 20.9697 0.895417 21.8516 2 21.8516H14C15.1046 21.8516 16 20.9701 16 19.8828V7.41406H10.7042C9.92917 7.41406 9.33333 6.82754 9.33333 6.10156ZM6.42083 15.3629C6.74633 15.6833 6.74633 16.2037 6.42083 16.524C6.25833 16.6877 6.04583 16.7656 5.83333 16.7656C5.62083 16.7656 5.40708 16.6861 5.24417 16.5259L3.24417 14.5572C2.91867 14.2368 2.91867 13.7164 3.24417 13.396L5.24417 11.4273C5.56967 11.1069 6.09708 11.1069 6.4225 11.4273C6.74792 11.7477 6.748 12.2681 6.4225 12.5884L5.0125 13.9766L6.42083 15.3629ZM12.7542 13.3941C13.0797 13.7146 13.0797 14.235 12.7542 14.5553L10.7542 16.524C10.5917 16.6877 10.3792 16.7656 10.1667 16.7656C9.95417 16.7656 9.74042 16.6861 9.5775 16.5259C9.252 16.2055 9.252 15.6851 9.5775 15.3648L10.9875 13.9766L9.57667 12.5886C9.25117 12.2682 9.25117 11.7478 9.57667 11.4274C9.90217 11.1071 10.4296 11.107 10.755 11.4274L12.7542 13.3941ZM10.6667 0.851562V6.10156H16L10.6667 0.851562Z"/>
</svg>
