<svg width="27" height="22" viewBox="0 0 27 22" fill="none" xmlns="http://www.w3.org/2000/svg">
<path d="M8.03348 2.0625C8.03348 0.923398 8.93307 0 10.0419 0H16.7364C17.8452 0 18.7448 0.923398 18.7448 2.0625V22H15.3975V18.5625C15.3975 17.4238 14.4979 16.5 13.3891 16.5C12.2804 16.5 11.3808 17.4238 11.3808 18.5625V22H8.03348V2.0625ZM13.0544 2.75C12.6862 2.75 12.385 3.05766 12.385 3.4375V4.46875H11.3808C11.0126 4.46875 10.7113 4.77812 10.7113 5.15625V5.84375C10.7113 6.22188 11.0126 6.53125 11.3808 6.53125H12.385V7.5625C12.385 7.94063 12.6862 8.25 13.0544 8.25H13.7239C14.0921 8.25 14.3933 7.94063 14.3933 7.5625V6.53125H15.3975C15.7657 6.53125 16.067 6.22188 16.067 5.84375V5.15625C16.067 4.77812 15.7657 4.46875 15.3975 4.46875H14.3933V3.4375C14.3933 3.05766 14.0921 2.75 13.7239 2.75H13.0544ZM6.69457 4.125V22H2.00837C0.899164 22 0 21.0762 0 19.9375V13.75H3.34728C3.71716 13.75 4.01674 13.4406 4.01674 13.0625C4.01674 12.6844 3.71716 12.375 3.34728 12.375H0V9.625H3.34728C3.71716 9.625 4.01674 9.31563 4.01674 8.9375C4.01674 8.55937 3.71716 8.25 3.34728 8.25H0V6.1875C0 5.04883 0.899164 4.125 2.00837 4.125H6.69457ZM24.7699 4.125C25.8787 4.125 26.7783 5.04883 26.7783 6.1875V8.25H23.431C23.0628 8.25 22.7615 8.55937 22.7615 8.9375C22.7615 9.31563 23.0628 9.625 23.431 9.625H26.7783V12.375H23.431C23.0628 12.375 22.7615 12.6844 22.7615 13.0625C22.7615 13.4406 23.0628 13.75 23.431 13.75H26.7783V19.9375C26.7783 21.0762 25.8787 22 24.7699 22H20.0837V4.125H24.7699Z" fill="black"/>
</svg>
