<svg viewBox="0 0 22 26" xmlns="http://www.w3.org/2000/svg">
<path d="M12.1854 5.08594C12.1854 5.73535 11.6596 6.25781 11.0061 6.25781C10.3527 6.25781 9.82691 5.73535 9.82691 5.08594V1.17969C9.82691 0.532715 10.3527 0.0078125 11.0061 0.0078125C11.6596 0.0078125 12.1854 0.532715 12.1854 1.17969V5.08594ZM7.5569 7.82031H14.4554C16.0719 7.82031 17.5951 8.86035 18.1552 10.4131L19.5457 14.2852C20.5333 14.7002 21.2261 15.6719 21.2261 16.8047V23.4453C21.2261 24.3096 20.5235 25.0078 19.6538 25.0078H18.8677C17.998 25.0078 17.2954 24.3096 17.2954 23.4453V21.8828H4.71692V23.4453C4.71692 24.3096 4.01282 25.0078 3.14461 25.0078H2.35846C1.49025 25.0078 0.786153 24.3096 0.786153 23.4453V16.8047C0.786153 15.6719 1.47797 14.7002 2.46459 14.2852L3.85657 10.4131C4.41523 8.86035 5.89615 7.82031 7.5569 7.82031ZM7.5569 10.9453C7.22769 10.9453 6.92797 11.1553 6.81988 11.4629L5.88141 14.0703H16.1309L15.1924 11.4629C15.0401 11.1553 14.7846 10.9453 14.4554 10.9453H7.5569ZM4.71692 19.1484C5.37041 19.1484 5.89615 18.626 5.89615 17.9766C5.89615 17.3271 5.37041 16.8047 4.71692 16.8047C4.06589 16.8047 3.53769 17.3271 3.53769 17.9766C3.53769 18.626 4.06589 19.1484 4.71692 19.1484ZM17.2954 16.8047C16.6419 16.8047 16.1161 17.3271 16.1161 17.9766C16.1161 18.626 16.6419 19.1484 17.2954 19.1484C17.9489 19.1484 18.4746 18.626 18.4746 17.9766C18.4746 17.3271 17.9489 16.8047 17.2954 16.8047ZM0.345367 1.91357C0.805807 1.45605 1.55265 1.45605 2.01304 1.91357L4.3715 4.25732C4.83189 4.71484 4.83189 5.45703 4.3715 5.87207C3.91111 6.37012 3.16427 6.37012 2.70387 5.87207L0.345367 3.5708C-0.115122 3.11328 -0.115122 2.37109 0.345367 1.91357ZM19.9978 1.91357C20.4596 1.45605 21.2065 1.45605 21.6241 1.91357C22.1253 2.37109 22.1253 3.11328 21.6241 3.5708L19.2657 5.87207C18.848 6.37012 18.1012 6.37012 17.6393 5.87207C17.1824 5.45703 17.1824 4.71484 17.6393 4.25732L19.9978 1.91357Z"/>
</svg>
