<svg viewBox="0 0 21 18" xmlns="http://www.w3.org/2000/svg">
<path d="M11.2875 1.6875H12.3375C12.7739 1.6875 13.125 2.06543 13.125 2.53125C13.125 2.99707 12.7739 3.375 12.3375 3.375H11.2875V5.00625L14.9855 7.38281C15.4613 7.68867 15.75 8.23711 15.75 8.83125V18H12.6V14.625C12.6 13.384 11.6583 12.375 10.5 12.375C9.34172 12.375 8.4 13.384 8.4 14.625V18H5.25V8.83125C5.25 8.23711 5.53875 7.68867 6.01453 7.38281L9.7125 5.00625V3.375H8.6625C8.22609 3.375 7.875 2.99707 7.875 2.53125C7.875 2.06543 8.22609 1.6875 8.6625 1.6875H9.7125V0.84375C9.7125 0.37793 10.0636 0 10.5 0C10.9364 0 11.2875 0.37793 11.2875 0.84375V1.6875ZM0.816047 11.6121L4.2 9.61875V18H1.575C0.705141 18 0 17.2441 0 16.3125V13.0922C0 12.477 0.312703 11.9109 0.816047 11.6121ZM19.425 18H16.8V9.61875L20.183 11.6121C20.6883 11.9109 21 12.477 21 13.0922V16.3125C21 17.2441 20.2945 18 19.425 18Z" />
</svg>
