<svg viewBox="0 0 20 18" xmlns="http://www.w3.org/2000/svg">
<path d="M19.9939 8.98145C19.9939 9.61426 19.473 10.11 18.8827 10.11H17.7716L17.7959 15.7385C17.7994 16.9865 16.8028 17.999 15.5736 17.999H4.4481C3.22062 17.999 2.22544 16.99 2.22544 15.749V10.11H1.11289C0.486826 10.11 0 9.61426 0 8.98145C0 8.66504 0.10431 8.38379 0.347584 8.1377L9.25038 0.280836C9.49345 0.03425 9.77124 -0.000976562 10.0143 -0.000976562C10.2574 -0.000976562 10.5352 0.0694766 10.747 0.245609L19.6119 8.1377C19.8897 8.38379 20.0321 8.66504 19.9939 8.98145ZM11.3894 8.15527V6.18652C11.3894 5.87715 11.1394 5.62402 10.8338 5.62402H9.16705C8.86148 5.62402 8.61147 5.87715 8.61147 6.18652V8.15527H6.66694C6.36138 8.15527 6.11137 8.4084 6.11137 8.71777V10.4053C6.11137 10.7146 6.36138 10.9678 6.66694 10.9678H8.61147V12.9365C8.61147 13.2459 8.86148 13.499 9.16705 13.499H10.8338C11.1394 13.499 11.3894 13.2459 11.3894 12.9365V10.9678H13.3339C13.6395 10.9678 13.8895 10.7146 13.8895 10.4053V8.71777C13.8895 8.4084 13.6395 8.15527 13.3339 8.15527H11.3894Z"/>
</svg>
